<?xml version="1.0" encoding="iso-8859-1"?>
<svg xmlns="http://www.w3.org/2000/svg" xmlns:xlink="http://www.w3.org/1999/xlink" width="512px" height="512px" x="0px" y="0px" style="enable-background:new 0 0 297 297" version="1.1" viewBox="0 0 297 297" xml:space="preserve">
    <g>
        <path fill="#FFFFFF" d="M170.191,236.267c-5.324,0-9.64,4.316-9.64,9.64v31.813h-12.532v-31.813c0-5.324-4.316-9.64-9.64-9.64   s-9.64,4.316-9.64,9.64v41.453c0,5.324,4.316,9.64,9.64,9.64h31.813c5.324,0,9.64-4.316,9.64-9.64v-41.453   C179.831,240.583,175.514,236.267,170.191,236.267z"/>
        <path fill="#FFFFFF" d="M233.124,39.283C228.699,16.917,208.938,0,185.293,0h-33.098c-26.264,0-44.449,15.523-46.617,39.124H69.713   c-28.849,0-52.32,23.471-52.32,52.32v132.29c0,5.324,4.316,9.64,9.64,9.64s9.64-4.316,9.64-9.64V91.444   c0-18.218,14.822-33.039,33.039-33.039h36.108c14.861,0,30.453,14.871,34.767,31.265c-25.29,4.587-44.407,24.958-44.407,49.321   v68.837c0,5.324,4.316,9.64,9.64,9.64s9.64-4.316,9.64-9.64v-68.837c0-18.548,18.579-31.008,35.932-31.008   c18.058,0,33.9,14.49,33.9,31.008v100.65c0,5.324,4.316,9.64,9.64,9.64c5.324,0,9.64-4.316,9.64-9.64v-100.65   c0-13.443-5.86-26.182-16.501-35.87c-7.305-6.651-16.352-11.243-25.829-13.261c4.139-15.293,18.281-31.455,32.69-31.455h34.387   c17.097,0,31.008,13.911,31.008,31.008v118.416c0,5.324,4.316,9.64,9.64,9.64c5.324,0,9.64-4.316,9.64-9.64V89.412   C279.607,62.965,259.08,41.236,233.124,39.283z M151.415,67.276c-6.635-10.396-16.147-18.97-26.765-23.824   c0.219-15.144,10.476-24.172,27.544-24.172h33.098c12.882,0,23.853,8.307,27.857,19.843h-18.217   C177.263,39.124,161.164,51.522,151.415,67.276z"/>
        <path fill="#FFFFFF" d="M138.378,217.468c5.324,0,9.64-4.316,9.64-9.64v-63.626c0-5.324-4.316-9.64-9.64-9.64s-9.64,4.316-9.64,9.64v63.626   C128.738,213.152,133.054,217.468,138.378,217.468z"/>
        <path fill="#FFFFFF" d="M58.846,102.749c-5.324,0-9.64,4.316-9.64,9.64v127.251c0,5.324,4.316,9.64,9.64,9.64s9.64-4.316,9.64-9.64V112.39   C68.486,107.066,64.17,102.749,58.846,102.749z"/>
        <path fill="#FFFFFF" d="M233.816,86.843c-5.324,0-9.64,4.316-9.64,9.64v143.157c0,5.324,4.316,9.64,9.64,9.64s9.64-4.316,9.64-9.64V96.483   C243.456,91.159,239.14,86.843,233.816,86.843z"/>
    </g>
</svg>
